<svg version="1.1" id="Layer_1" xmlns="http://www.w3.org/2000/svg" xmlns:xlink="http://www.w3.org/1999/xlink" x="0px" y="0px" width="25px" height="28.4px"
	 viewBox="0 0 25 28.4" style="enable-background:new 0 0 25 28.4;" xml:space="preserve">
<style type="text/css">
	.st0{fill:#636A52;}
</style>
<path class="st0" d="M12.5,26.7L1.6,20.4v-6.9l10.9-6.3l7.6,4.4l-2.9,1.7l-4.3-2.4c-0.2-0.1-0.6-0.1-0.8,0l-9.2,5.3
	c-0.2,0.1-0.4,0.4-0.4,0.7l0,0c0,0.3,0.2,0.5,0.4,0.7l9.2,5.3c0.1,0.1,0.3,0.1,0.4,0.1s0.3,0,0.4-0.1l10.5-6.1v3.7L12.5,26.7z
	 M9.4,14.3l3.1-1.8l3.1,1.7L12.5,16L9.4,14.3z M12.5,1.7L23.4,8v6.9l-10.9,6.3l-7.6-4.4l2.9-1.7l4.3,2.4c0.2,0.1,0.6,0.1,0.8,0
	l9.2-5.3c0.2-0.1,0.4-0.4,0.4-0.7l0,0l0,0c0-0.3-0.1-0.5-0.4-0.7l-9.2-5.3c-0.2-0.1-0.6-0.1-0.8,0L1.6,11.6V7.9L12.5,1.7z M24.6,6.9
	L12.9,0.1c-0.2-0.1-0.6-0.1-0.8,0L0.4,6.8C0.2,6.9,0,7.2,0,7.5V13l0,0v7.9c0,0.3,0.2,0.5,0.4,0.7l11.7,6.8c0.1,0.1,0.3,0.1,0.4,0.1
	s0.3,0,0.4-0.1l11.7-6.7c0.2-0.1,0.4-0.4,0.4-0.7v-5.6l0,0V7.5C25,7.3,24.9,7,24.6,6.9"/>
</svg>
