<svg version="1.1" focusable="false" xmlns="http://www.w3.org/2000/svg" xmlns:xlink="http://www.w3.org/1999/xlink" x="0px" y="0px" width="99.2px" height="102px" viewBox="0 0 99.2 102" enable-background="new 0 0 99.2 102" xml:space="preserve">
<path class="svg_path_line" fill="none" stroke="#222222" stroke-width="4" stroke-miterlimit="10" stroke-linejoin="miter" d="M25,3.5c0,0-22.9,27.4-22.9,48.4
	C2.1,64.4,12.4,74.6,25,74.6S47.9,64.3,47.9,51.7C47.9,31.6,25,3.3,25,3.3L25,3.4" style="stroke-dashoffset: 0.00001px; stroke-dasharray: none;"></path>
<path fill="none" stroke="#222222" stroke-width="4" stroke-miterlimit="10" d="M25.1,76v26" style="stroke-dashoffset: 0.00001px; stroke-dasharray: none;"></path>
<path class="svg_path_line" fill="none" stroke="#222222" stroke-width="4" stroke-miterlimit="10" stroke-linejoin="miter" d="M74.1,3.5c0,0-22.9,27.4-22.9,48.4
	C51.2,64.4,61.5,74.6,74.1,74.6S97,64.3,97,51.6C97,31.6,74.1,3.3,74.1,3.3L74.1,3.4" style="stroke-dashoffset: 0.00001px; stroke-dasharray: none;"></path>
<path fill="none" stroke="#222222" stroke-width="4" stroke-miterlimit="10" d="M74.1,76v26" style="stroke-dashoffset: 0.00001px; stroke-dasharray: none;"></path>
</svg>